<?xml version="1.0" encoding="utf-8"?>
<svg xmlns="http://www.w3.org/2000/svg" xmlns:xlink="http://www.w3.org/1999/xlink" style="margin: auto; background: none; display: block; shape-rendering: auto;" width="200px" height="200px" viewBox="0 0 100 100" preserveAspectRatio="xMidYMid">
<g transform="rotate(0 50 50)">
  <rect x="49" y="31" rx="1" ry="1.1" width="2" height="10" fill="#adbcbf">
    <animate attributeName="opacity" values="1;0" keyTimes="0;1" dur="1.0416666666666665s" begin="-0.9114583333333333s" repeatCount="indefinite"></animate>
  </rect>
</g><g transform="rotate(45 50 50)">
  <rect x="49" y="31" rx="1" ry="1.1" width="2" height="10" fill="#adbcbf">
    <animate attributeName="opacity" values="1;0" keyTimes="0;1" dur="1.0416666666666665s" begin="-0.7812499999999999s" repeatCount="indefinite"></animate>
  </rect>
</g><g transform="rotate(90 50 50)">
  <rect x="49" y="31" rx="1" ry="1.1" width="2" height="10" fill="#adbcbf">
    <animate attributeName="opacity" values="1;0" keyTimes="0;1" dur="1.0416666666666665s" begin="-0.6510416666666666s" repeatCount="indefinite"></animate>
  </rect>
</g><g transform="rotate(135 50 50)">
  <rect x="49" y="31" rx="1" ry="1.1" width="2" height="10" fill="#adbcbf">
    <animate attributeName="opacity" values="1;0" keyTimes="0;1" dur="1.0416666666666665s" begin="-0.5208333333333333s" repeatCount="indefinite"></animate>
  </rect>
</g><g transform="rotate(180 50 50)">
  <rect x="49" y="31" rx="1" ry="1.1" width="2" height="10" fill="#adbcbf">
    <animate attributeName="opacity" values="1;0" keyTimes="0;1" dur="1.0416666666666665s" begin="-0.39062499999999994s" repeatCount="indefinite"></animate>
  </rect>
</g><g transform="rotate(225 50 50)">
  <rect x="49" y="31" rx="1" ry="1.1" width="2" height="10" fill="#adbcbf">
    <animate attributeName="opacity" values="1;0" keyTimes="0;1" dur="1.0416666666666665s" begin="-0.26041666666666663s" repeatCount="indefinite"></animate>
  </rect>
</g><g transform="rotate(270 50 50)">
  <rect x="49" y="31" rx="1" ry="1.1" width="2" height="10" fill="#adbcbf">
    <animate attributeName="opacity" values="1;0" keyTimes="0;1" dur="1.0416666666666665s" begin="-0.13020833333333331s" repeatCount="indefinite"></animate>
  </rect>
</g><g transform="rotate(315 50 50)">
  <rect x="49" y="31" rx="1" ry="1.1" width="2" height="10" fill="#adbcbf">
    <animate attributeName="opacity" values="1;0" keyTimes="0;1" dur="1.0416666666666665s" begin="0s" repeatCount="indefinite"></animate>
  </rect>
</g>
<!-- [ldio] generated by https://loading.io/ --></svg>